<svg xmlns="http://www.w3.org/2000/svg" xmlns:xlink="http://www.w3.org/1999/xlink" version="1.1" xml:space="preserve" viewBox="112 213.48 274.94 75.86">
<desc>Created with Fabric.js 3.6.3</desc>
<defs>
</defs>
<g transform="matrix(0.26 0 0 0.26 167.8818 248.2464)">
<g style="">
		<g transform="matrix(1 0 0 1 -128.74357277923866 26.167675070774635)">
<path style="stroke: none; stroke-width: 1; stroke-dasharray: none; stroke-linecap: butt; stroke-dashoffset: 0; stroke-linejoin: miter; stroke-miterlimit: 4; fill: rgb(255,157,0); fill-rule: nonzero; opacity: 1;" transform=" translate(-373.68642722076135, -537.8076750707746)" d="M 459.87 554.46 l -74.39 74.13 a 57.75 57.75 0 0 1 -81.23 0 h 0 a 57.26 57.26 0 0 1 0 -80.93 l 98.75 -99 l 4.4 -4.39 l 14 -13.94" stroke-linecap="round"/>
</g>
		<g transform="matrix(1 0 0 1 78.69889337529963 -26.66619108630391)">
<path style="stroke: none; stroke-width: 1; stroke-dasharray: none; stroke-linecap: butt; stroke-dashoffset: 0; stroke-linejoin: miter; stroke-miterlimit: 4; fill: rgb(72,202,237); fill-rule: nonzero; opacity: 1;" transform=" translate(-581.1288933752996, -484.9738089136961)" d="M 445 569.45 c 0.31 -0.41 0.63 -0.83 1 -1.24 l 75.85 -75.58 a 57.33 57.33 0 0 0 4.42 -5 l 93.33 -93 a 57.23 57.23 0 0 1 81.08 80.79 l -85.93 85.61 l -7.61 7.61 l -3.68 3.68 l -16.09 16.06 l -3.66 3.66" stroke-linecap="round"/>
</g>
		<g transform="matrix(1 0 0 1 -13.959155670942266 -20.16005085676551)">
<path style="stroke: none; stroke-width: 1; stroke-dasharray: none; stroke-linecap: butt; stroke-dashoffset: 0; stroke-linejoin: miter; stroke-miterlimit: 4; fill: rgb(247,60,92); fill-rule: nonzero; opacity: 1;" transform=" translate(-488.47084432905774, -491.4799491432345)" d="M 505.63 391.48 a 117.15 117.15 0 0 0 -82.83 200 L 588.47 425.79 A 116.79 116.79 0 0 0 505.63 391.48 Z" stroke-linecap="round"/>
</g>
		<g transform="matrix(1 0 0 1 20.036916773685164 13.816916773685193)">
<path style="stroke: none; stroke-width: 1; stroke-dasharray: none; stroke-linecap: butt; stroke-dashoffset: 0; stroke-linejoin: miter; stroke-miterlimit: 4; fill: rgb(42,139,234); fill-rule: nonzero; opacity: 1;" transform=" translate(-522.4669167736852, -525.4569167736852)" d="M 588.47 425.79 L 422.8 591.46 A 117.15 117.15 0 0 0 588.47 425.79 Z" stroke-linecap="round"/>
</g>
</g>
</g>
<g transform="matrix(1,0,0,1,305.605,272.90529999999995)" style=""><path fill="#ffffff" opacity="1" d="M-128.93-16.88L-125.17-16.88L-125.17-11.45L-117.86-11.45L-117.86-16.88L-114.09-16.88L-114.09-2.88L-117.86-2.88L-117.86-8.11L-125.17-8.11L-125.17-2.88L-128.93-2.88L-128.93-16.88Z"/><path fill="#ffffff" opacity="1" d="M-108.12-16.88L-104.35-16.88L-104.35-2.88L-108.12-2.88L-108.12-16.88Z"/><path fill="#ffffff" opacity="1" d="M-98.94-10.41L-91.60-10.41L-91.60-7.48L-98.94-7.48L-98.94-10.41Z"/><path fill="#ffffff" opacity="1" d="M-79.96-2.88L-83.73-2.88L-83.73-13.54L-89.16-13.54L-89.16-16.88L-74.51-16.88L-74.51-13.54L-79.96-13.54L-79.96-2.88Z"/><path fill="#ffffff" opacity="1" d="M-56.22-16.88L-56.22-13.54L-65.86-13.54L-65.86-11.45L-58.31-11.45L-58.31-8.11L-65.86-8.11L-65.86-6.23L-56.22-6.23L-56.22-2.88L-69.62-2.88L-69.62-16.88L-56.22-16.88Z"/><path fill="#ffffff" opacity="1" d="M-51.25-9.34L-51.25-10.43Q-51.25-11.85-50.89-13.10Q-50.54-14.36-49.68-15.29Q-48.82-16.22-47.36-16.76Q-45.90-17.30-43.68-17.30L-43.68-17.30L-42.93-17.30Q-41.51-17.30-40.17-17.12Q-38.83-16.95-37.54-16.61L-37.54-16.61L-37.54-13.21Q-38.27-13.41-39.01-13.56Q-39.75-13.71-40.47-13.80Q-41.19-13.90-41.85-13.94Q-42.51-13.98-43.03-13.98L-43.03-13.98Q-44.66-13.98-45.55-13.68Q-46.44-13.37-46.85-12.83Q-47.25-12.29-47.33-11.53Q-47.40-10.78-47.40-9.88L-47.40-9.88Q-47.40-8.98-47.33-8.23Q-47.25-7.48-46.85-6.93Q-46.44-6.37-45.55-6.07Q-44.66-5.77-43.03-5.77L-43.03-5.77Q-42.51-5.77-41.85-5.81Q-41.19-5.85-40.47-5.94Q-39.75-6.04-39.01-6.19Q-38.27-6.35-37.54-6.56L-37.54-6.56L-37.54-3.13Q-38.83-2.82-40.17-2.64Q-41.51-2.46-42.93-2.46L-42.93-2.46L-43.68-2.46Q-45.90-2.46-47.36-3.01Q-48.82-3.55-49.68-4.48Q-50.54-5.41-50.89-6.66Q-51.25-7.92-51.25-9.34L-51.25-9.34Z"/><path fill="#ffffff" opacity="1" d="M-32.54-16.88L-28.78-16.88L-28.78-11.45L-21.46-11.45L-21.46-16.88L-17.70-16.88L-17.70-2.88L-21.46-2.88L-21.46-8.11L-28.78-8.11L-28.78-2.88L-32.54-2.88L-32.54-16.88Z"/><path fill="#ffffff" opacity="1" d="M-128.93 16.01L-128.93 2.01Q-127.13 1.80-125.16 1.70Q-123.18 1.59-121.28 1.59L-121.28 1.59L-120.70 1.59Q-118.94 1.59-117.79 1.93Q-116.64 2.26-115.95 2.82Q-115.26 3.39-114.99 4.15Q-114.72 4.91-114.72 5.77L-114.72 5.77L-114.72 6.19Q-114.72 7.11-115.26 7.86Q-115.81 8.61-117.21 8.99L-117.21 8.99Q-116.39 9.18-115.83 9.47Q-115.26 9.76-114.93 10.14Q-114.59 10.52-114.45 10.94Q-114.30 11.37-114.30 11.83L-114.30 11.83L-114.30 12.25Q-114.30 13.11-114.59 13.87Q-114.89 14.63-115.62 15.20Q-116.35 15.76-117.58 16.10Q-118.82 16.43-120.70 16.43L-120.70 16.43L-121.28 16.43Q-123.18 16.43-125.16 16.33Q-127.13 16.22-128.93 16.01L-128.93 16.01ZM-121.20 4.94L-121.20 4.94Q-121.97 4.94-123.05 4.98Q-124.13 5.02-125.17 5.12L-125.17 5.12L-125.17 7.44L-121.45 7.44Q-120.17 7.44-119.49 7.35Q-118.80 7.26-118.48 7.09Q-118.17 6.92-118.12 6.69Q-118.06 6.46-118.06 6.19L-118.06 6.19Q-118.06 5.94-118.13 5.71Q-118.19 5.48-118.49 5.30Q-118.80 5.12-119.43 5.03Q-120.07 4.94-121.20 4.94ZM-121.45 10.79L-125.17 10.79L-125.17 12.90Q-124.13 13.00-123.05 13.04Q-121.97 13.09-121.14 13.09L-121.14 13.09Q-119.88 13.09-119.18 12.99Q-118.48 12.90-118.14 12.72Q-117.79 12.54-117.72 12.31Q-117.65 12.08-117.65 11.83L-117.65 11.83Q-117.65 11.62-117.71 11.42Q-117.77 11.23-118.13 11.09Q-118.48 10.95-119.26 10.87Q-120.03 10.79-121.45 10.79L-121.45 10.79Z"/><path fill="#ffffff" opacity="1" d="M-97.71 2.01L-93.95 2.01L-93.95 10.18Q-93.95 11.48-94.28 12.61Q-94.61 13.73-95.43 14.59Q-96.24 15.45-97.62 15.94Q-99.00 16.43-101.09 16.43L-101.09 16.43L-101.85 16.43Q-103.94 16.43-105.32 15.94Q-106.69 15.45-107.51 14.59Q-108.32 13.73-108.66 12.61Q-108.99 11.48-108.99 10.18L-108.99 10.18L-108.99 2.01L-105.23 2.01L-105.23 9.64Q-105.23 10.33-105.17 10.94Q-105.11 11.56-104.76 12.04Q-104.42 12.52-103.65 12.80Q-102.89 13.09-101.47 13.09L-101.47 13.09Q-100.07 13.09-99.30 12.80Q-98.52 12.52-98.18 12.04Q-97.83 11.56-97.77 10.94Q-97.71 10.33-97.71 9.64L-97.71 9.64L-97.71 2.01Z"/><path fill="#ffffff" opacity="1" d="M-81.59 13.09L-81.59 13.09Q-80.46 13.09-79.83 12.97Q-79.19 12.86-78.87 12.68Q-78.54 12.50-78.46 12.28Q-78.37 12.06-78.37 11.87L-78.37 11.87Q-78.37 11.50-78.55 11.28Q-78.73 11.06-79.12 10.93Q-79.50 10.81-80.14 10.76Q-80.78 10.70-81.68 10.68L-81.68 10.68Q-82.20 10.66-82.91 10.62Q-83.62 10.58-84.37 10.44Q-85.13 10.31-85.86 10.05Q-86.59 9.78-87.16 9.31Q-87.74 8.84-88.09 8.13Q-88.45 7.42-88.45 6.40L-88.45 6.40L-88.45 6.13Q-88.45 5.23-88.12 4.40Q-87.80 3.58-87.02 2.95Q-86.23 2.32-84.91 1.96Q-83.58 1.59-81.59 1.59L-81.59 1.59L-80.84 1.59Q-79.40 1.59-78.04 1.77Q-76.68 1.95-75.39 2.28L-75.39 2.28L-75.39 5.73Q-76.91 5.37-78.41 5.17Q-79.90 4.96-81.45 4.96L-81.45 4.96Q-82.58 4.96-83.22 5.07Q-83.87 5.19-84.20 5.36Q-84.52 5.54-84.60 5.74Q-84.69 5.94-84.69 6.13L-84.69 6.13Q-84.69 6.50-84.51 6.73Q-84.33 6.96-83.93 7.09Q-83.54 7.21-82.91 7.27Q-82.28 7.32-81.41 7.34L-81.41 7.34Q-80.90 7.36-80.21 7.39Q-79.52 7.42-78.76 7.56Q-78.00 7.69-77.26 7.97Q-76.51 8.24-75.93 8.71Q-75.34 9.18-74.98 9.90Q-74.61 10.62-74.61 11.64L-74.61 11.64L-74.61 11.92Q-74.61 12.81-74.94 13.63Q-75.26 14.44-76.05 15.07Q-76.85 15.70-78.17 16.06Q-79.48 16.43-81.49 16.43L-81.49 16.43L-82.24 16.43Q-83.89 16.43-85.45 16.25Q-87.01 16.08-88.51 15.76L-88.51 15.76L-88.51 12.25Q-86.82 12.63-85.01 12.86Q-83.20 13.09-81.59 13.09Z"/><path fill="#ffffff" opacity="1" d="M-69.20 2.01L-65.44 2.01L-65.44 16.01L-69.20 16.01L-69.20 2.01Z"/><path fill="#ffffff" opacity="1" d="M-56.05 2.01L-48.72 11.00L-48.72 2.01L-44.96 2.01L-44.96 16.01L-48.72 16.01L-56.05 7.03L-56.05 16.01L-59.82 16.01L-59.82 2.01L-56.05 2.01Z"/><path fill="#ffffff" opacity="1" d="M-25.94 2.01L-25.94 5.35L-35.57 5.35L-35.57 7.44L-28.03 7.44L-28.03 10.79L-35.57 10.79L-35.57 12.67L-25.94 12.67L-25.94 16.01L-39.33 16.01L-39.33 2.01L-25.94 2.01Z"/><path fill="#ffffff" opacity="1" d="M-13.84 13.09L-13.84 13.09Q-12.71 13.09-12.07 12.97Q-11.43 12.86-11.11 12.68Q-10.78 12.50-10.70 12.28Q-10.62 12.06-10.62 11.87L-10.62 11.87Q-10.62 11.50-10.79 11.28Q-10.97 11.06-11.36 10.93Q-11.75 10.81-12.38 10.76Q-13.02 10.70-13.92 10.68L-13.92 10.68Q-14.44 10.66-15.15 10.62Q-15.86 10.58-16.62 10.44Q-17.37 10.31-18.10 10.05Q-18.83 9.78-19.41 9.31Q-19.98 8.84-20.34 8.13Q-20.69 7.42-20.69 6.40L-20.69 6.40L-20.69 6.13Q-20.69 5.23-20.37 4.40Q-20.04 3.58-19.26 2.95Q-18.48 2.32-17.15 1.96Q-15.82 1.59-13.84 1.59L-13.84 1.59L-13.08 1.59Q-11.64 1.59-10.28 1.77Q-8.92 1.95-7.63 2.28L-7.63 2.28L-7.63 5.73Q-9.15 5.37-10.65 5.17Q-12.14 4.96-13.69 4.96L-13.69 4.96Q-14.82 4.96-15.47 5.07Q-16.11 5.19-16.44 5.36Q-16.76 5.54-16.85 5.74Q-16.93 5.94-16.93 6.13L-16.93 6.13Q-16.93 6.50-16.75 6.73Q-16.57 6.96-16.18 7.09Q-15.78 7.21-15.15 7.27Q-14.53 7.32-13.65 7.34L-13.65 7.34Q-13.15 7.36-12.46 7.39Q-11.77 7.42-11.00 7.56Q-10.24 7.69-9.50 7.97Q-8.76 8.24-8.17 8.71Q-7.59 9.18-7.22 9.90Q-6.86 10.62-6.86 11.64L-6.86 11.64L-6.86 11.92Q-6.86 12.81-7.18 13.63Q-7.50 14.44-8.30 15.07Q-9.09 15.70-10.41 16.06Q-11.72 16.43-13.73 16.43L-13.73 16.43L-14.48 16.43Q-16.13 16.43-17.69 16.25Q-19.25 16.08-20.75 15.76L-20.75 15.76L-20.75 12.25Q-19.06 12.63-17.25 12.86Q-15.44 13.09-13.84 13.09Z"/><path fill="#ffffff" opacity="1" d="M5.27 13.09L5.27 13.09Q6.40 13.09 7.03 12.97Q7.67 12.86 7.99 12.68Q8.32 12.50 8.40 12.28Q8.49 12.06 8.49 11.87L8.49 11.87Q8.49 11.50 8.31 11.28Q8.13 11.06 7.74 10.93Q7.36 10.81 6.72 10.76Q6.08 10.70 5.18 10.68L5.18 10.68Q4.66 10.66 3.95 10.62Q3.24 10.58 2.49 10.44Q1.73 10.31 1.00 10.05Q0.27 9.78-0.30 9.31Q-0.88 8.84-1.23 8.13Q-1.59 7.42-1.59 6.40L-1.59 6.40L-1.59 6.13Q-1.59 5.23-1.26 4.40Q-0.94 3.58-0.16 2.95Q0.63 2.32 1.95 1.96Q3.28 1.59 5.27 1.59L5.27 1.59L6.02 1.59Q7.46 1.59 8.82 1.77Q10.18 1.95 11.47 2.28L11.47 2.28L11.47 5.73Q9.95 5.37 8.45 5.17Q6.96 4.96 5.41 4.96L5.41 4.96Q4.28 4.96 3.64 5.07Q2.99 5.19 2.66 5.36Q2.34 5.54 2.26 5.74Q2.17 5.94 2.17 6.13L2.17 6.13Q2.17 6.50 2.35 6.73Q2.53 6.96 2.93 7.09Q3.32 7.21 3.95 7.27Q4.58 7.32 5.46 7.34L5.46 7.34Q5.96 7.36 6.65 7.39Q7.34 7.42 8.10 7.56Q8.86 7.69 9.60 7.97Q10.35 8.24 10.93 8.71Q11.52 9.18 11.88 9.90Q12.25 10.62 12.25 11.64L12.25 11.64L12.25 11.92Q12.25 12.81 11.92 13.63Q11.60 14.44 10.81 15.07Q10.01 15.70 8.69 16.06Q7.38 16.43 5.37 16.43L5.37 16.43L4.62 16.43Q2.97 16.43 1.41 16.25Q-0.15 16.08-1.65 15.76L-1.65 15.76L-1.65 12.25Q0.04 12.63 1.85 12.86Q3.66 13.09 5.27 13.09Z"/><path fill="#ffffff" opacity="1" d=""/><path fill="#ffffff" opacity="1" d="M25.79 2.01L29.55 2.01L29.55 7.44L36.87 7.44L36.87 2.01L40.63 2.01L40.63 16.01L36.87 16.01L36.87 10.79L29.55 10.79L29.55 16.01L25.79 16.01L25.79 2.01Z"/><path fill="#ffffff" opacity="1" d="M57.43 2.01L61.20 2.01L61.20 10.18Q61.20 11.48 60.86 12.61Q60.53 13.73 59.71 14.59Q58.90 15.45 57.52 15.94Q56.14 16.43 54.05 16.43L54.05 16.43L53.30 16.43Q51.21 16.43 49.83 15.94Q48.45 15.45 47.63 14.59Q46.82 13.73 46.48 12.61Q46.15 11.48 46.15 10.18L46.15 10.18L46.15 2.01L49.91 2.01L49.91 9.64Q49.91 10.33 49.97 10.94Q50.03 11.56 50.38 12.04Q50.72 12.52 51.49 12.80Q52.25 13.09 53.67 13.09L53.67 13.09Q55.07 13.09 55.84 12.80Q56.62 12.52 56.96 12.04Q57.31 11.56 57.37 10.94Q57.43 10.33 57.43 9.64L57.43 9.64L57.43 2.01Z"/><path fill="#ffffff" opacity="1" d="M66.71 16.01L66.71 2.01Q68.51 1.80 70.49 1.70Q72.46 1.59 74.36 1.59L74.36 1.59L74.95 1.59Q76.70 1.59 77.85 1.93Q79.00 2.26 79.69 2.82Q80.38 3.39 80.65 4.15Q80.92 4.91 80.92 5.77L80.92 5.77L80.92 6.19Q80.92 7.11 80.38 7.86Q79.84 8.61 78.44 8.99L78.44 8.99Q79.25 9.18 79.82 9.47Q80.38 9.76 80.72 10.14Q81.05 10.52 81.20 10.94Q81.34 11.37 81.34 11.83L81.34 11.83L81.34 12.25Q81.34 13.11 81.05 13.87Q80.76 14.63 80.03 15.20Q79.29 15.76 78.06 16.10Q76.83 16.43 74.95 16.43L74.95 16.43L74.36 16.43Q72.46 16.43 70.49 16.33Q68.51 16.22 66.71 16.01L66.71 16.01ZM74.45 4.94L74.45 4.94Q73.67 4.94 72.60 4.98Q71.52 5.02 70.47 5.12L70.47 5.12L70.47 7.44L74.20 7.44Q75.47 7.44 76.16 7.35Q76.85 7.26 77.16 7.09Q77.48 6.92 77.53 6.69Q77.58 6.46 77.58 6.19L77.58 6.19Q77.58 5.94 77.52 5.71Q77.46 5.48 77.15 5.30Q76.85 5.12 76.21 5.03Q75.57 4.94 74.45 4.94ZM74.20 10.79L70.47 10.79L70.47 12.90Q71.52 13.00 72.60 13.04Q73.67 13.09 74.51 13.09L74.51 13.09Q75.76 13.09 76.46 12.99Q77.16 12.90 77.51 12.72Q77.85 12.54 77.93 12.31Q78.00 12.08 78.00 11.83L78.00 11.83Q78.00 11.62 77.94 11.42Q77.87 11.23 77.52 11.09Q77.16 10.95 76.39 10.87Q75.62 10.79 74.20 10.79L74.20 10.79Z"/></g></svg>